#N canvas 1430 622 683 192 10;
#X declare -lib mrpeach;
#X obj 652 -176 bng 15 250 50 0 empty empty empty 17 7 0 10 -262144
-1 -1;
#X msg 532 -177 reset time;
#X obj 604 -176 s time;
#X floatatom 155 -72 5 0 0 0 - - -;
#X floatatom 270 -68 5 0 0 0 - - -;
#X floatatom 328 -72 5 0 0 0 - - -;
#X floatatom 213 -70 5 0 0 0 - - -;
#X obj 68 -114 unpackOSC;
#X obj 32 -71 print unpacked;
#X obj 40 -170 import mrpeach;
#X text 32 -153 recibiendo datos;
#X floatatom 383 -70 5 0 0 0 - - -;
#X obj 155 -54 s datos1;
#X obj 213 -54 s datos2;
#X obj 328 -54 s datos4;
#X obj 383 -54 s datos5;
#X obj 270 -52 s datos3;
#X obj 532 -154 s speed;
#X floatatom 587 -152 5 0 0 0 - - -;
#X obj 33 -136 udpreceive 8000;
#X floatatom 441 -70 5 0 0 0 - - -;
#X obj 441 -54 s datos6;
#X floatatom 501 -72 5 0 0 0 - - -;
#X obj 501 -56 s datos7;
#X floatatom 564 -73 5 0 0 0 - - -;
#X obj 564 -57 s datos8;
#X obj 158 -122 * 0.1;
#X obj 211 -126 * 0.1;
#X obj 314 -125 * 0.1;
#X obj 369 -120 * 0.1;
#X obj 265 -126 / 100;
#X obj 271 -107 * 0.1;
#X obj 271 -88 * 0.1;
#X obj 213 -99 * 0.1;
#X obj 157 -96 * 0.1;
#X obj 321 -97 * 0.1;
#X obj 370 -96 * 0.1;
#X obj 413 -115 * 0.1;
#X obj 426 -92 * 0.1;
#X obj 459 -119 * 0.1;
#X obj 472 -95 * 0.1;
#X obj 428 -139 / 100;
#X obj 522 -119 * 0.1;
#X obj 535 -95 * 0.1;
#X obj 167 -188 routeOSC /PAS/TW /PAS/TA /PAS/BP /PAS/RH /PIS/TW /PIS/TA
/PIS/BP /PIS/RH;
#X connect 0 0 2 0;
#X connect 1 0 0 0;
#X connect 3 0 12 0;
#X connect 4 0 16 0;
#X connect 5 0 14 0;
#X connect 6 0 13 0;
#X connect 7 0 8 0;
#X connect 7 0 44 0;
#X connect 11 0 15 0;
#X connect 18 0 17 0;
#X connect 19 0 7 0;
#X connect 20 0 21 0;
#X connect 22 0 23 0;
#X connect 24 0 25 0;
#X connect 26 0 34 0;
#X connect 27 0 33 0;
#X connect 28 0 35 0;
#X connect 29 0 36 0;
#X connect 30 0 31 0;
#X connect 31 0 32 0;
#X connect 32 0 4 0;
#X connect 33 0 6 0;
#X connect 34 0 3 0;
#X connect 35 0 5 0;
#X connect 36 0 11 0;
#X connect 37 0 38 0;
#X connect 38 0 20 0;
#X connect 39 0 40 0;
#X connect 40 0 22 0;
#X connect 41 0 39 0;
#X connect 42 0 43 0;
#X connect 43 0 24 0;
#X connect 44 0 26 0;
#X connect 44 1 27 0;
#X connect 44 2 30 0;
#X connect 44 3 28 0;
#X connect 44 4 29 0;
#X connect 44 5 37 0;
#X connect 44 6 41 0;
#X connect 44 7 42 0;
